<svg width="44" height="44" viewBox="0 0 44 44" fill="none" xmlns="http://www.w3.org/2000/svg">
<rect width="44" height="44" rx="22" fill="#FFE4E4"/>
<path d="M21.997 14.0334C22.5356 14.0334 22.9707 14.4785 22.9707 15.0293V16.1402C23.0194 16.1465 23.065 16.1527 23.1137 16.162C23.1259 16.1651 23.135 16.1651 23.1472 16.1682L24.6077 16.4421C25.1372 16.5417 25.4871 17.0614 25.3897 17.5997C25.2923 18.1381 24.7842 18.4991 24.2578 18.3995L22.8125 18.1288C21.8601 17.9856 21.0203 18.0821 20.43 18.3217C19.8397 18.5613 19.6023 18.8912 19.5476 19.1961C19.4867 19.5291 19.5323 19.7158 19.5841 19.831C19.6388 19.9523 19.7514 20.0893 19.9736 20.2418C20.4695 20.5747 21.2302 20.7926 22.2161 21.0602L22.3043 21.0851C23.1746 21.3216 24.2395 21.6079 25.0307 22.1369C25.4627 22.4263 25.8705 22.8184 26.123 23.3661C26.3816 23.9232 26.4364 24.5456 26.3177 25.2084C26.1078 26.3909 25.3106 27.1814 24.3217 27.5953C23.9048 27.7695 23.4515 27.8816 22.9707 27.9376V28.9707C22.9707 29.5215 22.5356 29.9666 21.997 29.9666C21.4584 29.9666 21.0233 29.5215 21.0233 28.9707V27.8847C21.0111 27.8816 20.9959 27.8816 20.9838 27.8784H20.9777C20.2352 27.7602 19.0151 27.4334 18.1935 27.06C17.7036 26.8359 17.4815 26.2478 17.7006 25.7468C17.9197 25.2457 18.4948 25.0186 18.9846 25.2426C19.6206 25.532 20.6673 25.8183 21.2728 25.9148C22.2435 26.0611 23.0437 25.9771 23.5853 25.7499C24.0996 25.5352 24.3339 25.224 24.4008 24.8505C24.4586 24.5207 24.413 24.3308 24.3612 24.2157C24.3034 24.0912 24.1908 23.9543 23.9657 23.8018C23.4667 23.4688 22.7029 23.251 21.714 22.9834L21.6288 22.9616C20.7616 22.7251 19.6967 22.4357 18.9055 21.9066C18.4735 21.6172 18.0688 21.222 17.8162 20.6743C17.5606 20.1173 17.5089 19.4949 17.6306 18.8321C17.8497 17.6433 18.7199 16.8715 19.7088 16.4701C20.1135 16.3052 20.5578 16.1931 21.0233 16.1278V15.0293C21.0233 14.4785 21.4584 14.0334 21.997 14.0334Z" fill="#F16868"/>
</svg>
